<svg id="Layer_1" data-name="Layer 1" xmlns="http://www.w3.org/2000/svg" width="4.53in" height="4.53in" viewBox="0 0 326.23 326.23">
  <defs>
    <style>
      .cls-1, .cls-2 {
        fill: none;
        stroke-miterlimit: 10;
        stroke-width: 0.25px;
      }

      .cls-1 {
        stroke: #ed1c24;
      }

      .cls-2 {
        stroke: #c8252c;
      }

      .cls-3 {
        fill: #231f20;
      }
    </style>
  </defs>
  <title>BottomLayer_v0.2</title>
  <circle class="cls-1" cx="91.15" cy="51.83" r="4.25"/>
  <circle class="cls-1" cx="91.15" cy="261.22" r="4.25"/>
  <circle class="cls-1" cx="235.09" cy="51.83" r="4.25"/>
  <circle class="cls-1" cx="235.09" cy="261.22" r="4.25"/>
  <rect class="cls-2" x="0.13" y="0.13" width="325.98" height="325.98" rx="8.83"/>
  <circle class="cls-1" cx="12.51" cy="12.88" r="4.25"/>
  <circle class="cls-1" cx="313.35" cy="12.88" r="4.25"/>
  <circle class="cls-1" cx="12.51" cy="313.35" r="4.25"/>
  <circle class="cls-1" cx="313.35" cy="313.35" r="4.25"/>
  <circle class="cls-1" cx="12.51" cy="163.12" r="4.25"/>
  <circle class="cls-1" cx="313.35" cy="163.98" r="4.25"/>
  <circle class="cls-1" cx="163.18" cy="12.88" r="4.25"/>
  <circle class="cls-1" cx="163.18" cy="313.35" r="4.25"/>
  <g>
    <path class="cls-3" d="M231.65,301.88V290.24h8.51c2.28,0,3.78,1,3.78,3a2.34,2.34,0,0,1-1.62,2.48,2.62,2.62,0,0,1,1.83,2.63,3.41,3.41,0,0,1-3.75,3.52Zm3.5-5.06v-1.71h5c1.15,0,1.7-.4,1.7-1.41,0-1.23-1-1.42-2.49-1.42h-5.71v7.58h5.89c1.46,0,2.51-.4,2.51-1.53,0-1-.62-1.51-1.76-1.51Z" transform="translate(-211.48 -12.39)"/>
    <path class="cls-3" d="M246.27,302a1.09,1.09,0,0,1,0-2.18,1.09,1.09,0,1,1,0,2.18Z" transform="translate(-211.48 -12.39)"/>
    <path class="cls-3" d="M260.2,301.88l-2.95-3.23H252.9v-1.8h4.85a2,2,0,0,0,2.22-2.33,2,2,0,0,0-2.22-2.24h-6.34v9.6h-2V290.24h8.36a3.91,3.91,0,0,1,4.22,4.24,3.81,3.81,0,0,1-2.4,3.86l3.51,3.54Z" transform="translate(-211.48 -12.39)"/>
    <path class="cls-3" d="M265.2,302a1.09,1.09,0,0,1,0-2.18,1.09,1.09,0,1,1,0,2.18Z" transform="translate(-211.48 -12.39)"/>
    <path class="cls-3" d="M278.26,290.24h2v6.5c0,3.6-1.77,5.3-6.29,5.3s-6.27-1.7-6.27-5.3v-6.5h2.1v6.5c0,2.34,1,3.3,4.24,3.3s4.24-1,4.24-3.3Z" transform="translate(-211.48 -12.39)"/>
    <path class="cls-3" d="M282.7,302a1.09,1.09,0,0,1,0-2.18,1.09,1.09,0,1,1,0,2.18Z" transform="translate(-211.48 -12.39)"/>
    <path class="cls-3" d="M289.33,298.65v-2H294a2.09,2.09,0,0,0,2.27-2.21,2.06,2.06,0,0,0-2.27-2.19h-6.16v9.6h-2V290.24H294a3.89,3.89,0,0,1,4.26,4.16,4,4,0,0,1-4.26,4.25Z" transform="translate(-211.48 -12.39)"/>
    <path class="cls-3" d="M300.25,302a.79.79,0,0,1-.81-.81.8.8,0,0,1,.81-.82.81.81,0,0,1,.82.82A.8.8,0,0,1,300.25,302Z" transform="translate(-211.48 -12.39)"/>
    <path class="cls-3" d="M231.27,313.88v-7.27h5.32c1.42,0,2.36.64,2.36,1.88a1.47,1.47,0,0,1-1,1.55,1.63,1.63,0,0,1,1.14,1.64,2.13,2.13,0,0,1-2.34,2.2Zm2.19-3.16v-1.07h3.14c.72,0,1.06-.25,1.06-.88s-.61-.89-1.55-.89h-3.57v4.74h3.68c.91,0,1.57-.25,1.57-1s-.39-.94-1.1-.94Z" transform="translate(-211.48 -12.39)"/>
    <path class="cls-3" d="M240.19,313.88v-7.27h4.21a3.41,3.41,0,0,1,3.54,3.56,3.53,3.53,0,0,1-3.54,3.71Zm4.21-1.27a2.26,2.26,0,0,0,2.27-2.38,2.23,2.23,0,0,0-2.27-2.35h-3v4.73Z" transform="translate(-211.48 -12.39)"/>
    <path class="cls-3" d="M249,313.88v-7.27h1.27v6h4.89v1.27Z" transform="translate(-211.48 -12.39)"/>
    <path class="cls-3" d="M265.74,313.88l-1.84-2h-2.72v-1.12h3a1.28,1.28,0,0,0,1.39-1.46,1.25,1.25,0,0,0-1.39-1.4h-4v6H259v-7.27h5.22a2.45,2.45,0,0,1,2.64,2.65,2.39,2.39,0,0,1-1.5,2.41l2.19,2.21Z" transform="translate(-211.48 -12.39)"/>
    <path class="cls-3" d="M268.2,313.88v-7.27h6.49v1.27h-5.23v4.73h5.24v1.27Zm2.19-3.16v-1.07h4v1.07Z" transform="translate(-211.48 -12.39)"/>
    <path class="cls-3" d="M284.84,313.88l-1.39-5.11-2.06,4.73a.68.68,0,0,1-1.3,0l-2-4.73-1.39,5.11H275.4l1.87-6.84a.6.6,0,0,1,.63-.52.69.69,0,0,1,.64.43l2.24,5.14L283,307a.65.65,0,0,1,.61-.43.61.61,0,0,1,.61.52l1.86,6.84Z" transform="translate(-211.48 -12.39)"/>
    <path class="cls-3" d="M289.86,313.88a3.54,3.54,0,0,1-3.53-3.71,3.39,3.39,0,0,1,3.53-3.56h1.77a3.4,3.4,0,0,1,3.56,3.56,3.54,3.54,0,0,1-3.56,3.71Zm1.77-1.27a2.26,2.26,0,0,0,2.29-2.38,2.23,2.23,0,0,0-2.29-2.35h-1.77a2.23,2.23,0,0,0-2.26,2.35,2.25,2.25,0,0,0,2.26,2.38Z" transform="translate(-211.48 -12.39)"/>
    <path class="cls-3" d="M298.38,313.88v-6h-2.76v-1.27h6.79v1.27h-2.76v6Z" transform="translate(-211.48 -12.39)"/>
    <path class="cls-3" d="M303.25,313.88v-7.27h6.49v1.27h-5.23v4.73h5.24v1.27Zm2.19-3.16v-1.07h4v1.07Z" transform="translate(-211.48 -12.39)"/>
    <path class="cls-3" d="M320.28,306.61h1.24v4.06c0,2.25-1.11,3.31-3.93,3.31s-3.92-1.06-3.92-3.31v-4.06H315v4.06c0,1.46.65,2.06,2.65,2.06s2.65-.6,2.65-2.06Z" transform="translate(-211.48 -12.39)"/>
    <path class="cls-3" d="M323.85,308.56v5.32h-1.21v-6.6c0-.47.25-.76.65-.76a.72.72,0,0,1,.54.26l5.13,5.09v-5.32h1.21v6.66c0,.48-.26.76-.63.76a.81.81,0,0,1-.58-.27Z" transform="translate(-211.48 -12.39)"/>
    <path class="cls-3" d="M331.47,313.88v-7.27h1.27v7.27Z" transform="translate(-211.48 -12.39)"/>
    <path class="cls-3" d="M336.4,313.88v-6h-2.76v-1.27h6.79v1.27h-2.76v6Z" transform="translate(-211.48 -12.39)"/>
    <path class="cls-3" d="M346.4,311.86v-1.23h2.92a1.31,1.31,0,0,0,1.42-1.38,1.29,1.29,0,0,0-1.42-1.37h-3.85v6h-1.26v-7.27h5.11a2.43,2.43,0,0,1,2.66,2.6,2.48,2.48,0,0,1-2.66,2.65Z" transform="translate(-211.48 -12.39)"/>
    <path class="cls-3" d="M352.88,313.88v-7.27h1.27v6H359v1.27Z" transform="translate(-211.48 -12.39)"/>
    <path class="cls-3" d="M367.53,313.88l-1.09-1.83H363l.6-1h2.23l-1.62-2.72-3.3,5.58h-1.45l4.18-7a.71.71,0,0,1,.62-.41.7.7,0,0,1,.61.41l4.19,7Z" transform="translate(-211.48 -12.39)"/>
    <path class="cls-3" d="M370.88,313.88v-6h-2.76v-1.27h6.79v1.27h-2.76v6Z" transform="translate(-211.48 -12.39)"/>
    <path class="cls-3" d="M375.75,313.88v-7.27h6.17v1.27H377v6Zm2.19-3v-1.11h3.68v1.11Z" transform="translate(-211.48 -12.39)"/>
    <path class="cls-3" d="M386.12,313.88a3.54,3.54,0,0,1-3.53-3.71,3.39,3.39,0,0,1,3.53-3.56h1.77a3.4,3.4,0,0,1,3.56,3.56,3.54,3.54,0,0,1-3.56,3.71Zm1.77-1.27a2.26,2.26,0,0,0,2.29-2.38,2.23,2.23,0,0,0-2.29-2.35h-1.77a2.23,2.23,0,0,0-2.26,2.35,2.25,2.25,0,0,0,2.26,2.38Z" transform="translate(-211.48 -12.39)"/>
    <path class="cls-3" d="M399.23,313.88l-1.84-2h-2.72v-1.12h3a1.28,1.28,0,0,0,1.39-1.46,1.25,1.25,0,0,0-1.39-1.4h-4v6h-1.26v-7.27h5.22a2.45,2.45,0,0,1,2.64,2.65,2.39,2.39,0,0,1-1.5,2.41l2.19,2.21Z" transform="translate(-211.48 -12.39)"/>
    <path class="cls-3" d="M410.74,313.88l-1.39-5.11-2.06,4.73a.68.68,0,0,1-1.3,0l-2.05-4.73-1.39,5.11H401.3l1.87-6.84a.6.6,0,0,1,.63-.52.69.69,0,0,1,.64.43l2.24,5.14,2.24-5.14a.65.65,0,0,1,.61-.43.61.61,0,0,1,.61.52l1.86,6.84Z" transform="translate(-211.48 -12.39)"/>
  </g>
</svg>
