<svg id="Layer_1" data-name="Layer 1" xmlns="http://www.w3.org/2000/svg" width="4.53in" height="4.53in" viewBox="0 0 326.23 326.23">
  <defs>
    <style>
      .cls-1, .cls-2 {
        fill: none;
        stroke-miterlimit: 10;
        stroke-width: 0.25px;
      }

      .cls-1 {
        stroke: #c8252c;
      }

      .cls-2 {
        stroke: #ed1c24;
      }

      .cls-3 {
        fill: #231f20;
      }
    </style>
  </defs>
  <title>TopLayer_v0.2</title>
  <rect class="cls-1" x="207.21" y="16.66" width="325.98" height="325.98" rx="8.83" transform="translate(533.32 342.77) rotate(180)"/>
  <circle class="cls-2" cx="267.16" cy="62.43" r="42.66"/>
  <circle class="cls-2" cx="128.12" cy="163.46" r="21.26"/>
  <circle class="cls-2" cx="184.7" cy="281.79" r="7.09"/>
  <circle class="cls-2" cx="71.54" cy="281.79" r="7.09"/>
  <circle class="cls-2" cx="184.7" cy="44.44" r="7.09"/>
  <circle class="cls-2" cx="71.54" cy="44.44" r="7.09"/>
  <circle class="cls-2" cx="313.72" cy="12.88" r="4.25"/>
  <circle class="cls-2" cx="12.88" cy="12.88" r="4.25"/>
  <circle class="cls-2" cx="313.72" cy="313.35" r="4.25"/>
  <circle class="cls-2" cx="12.88" cy="313.35" r="4.25"/>
  <circle class="cls-2" cx="313.72" cy="163.12" r="4.25"/>
  <circle class="cls-2" cx="12.88" cy="163.98" r="4.25"/>
  <g>
    <path class="cls-3" d="M509.08,269.58l3.44,16.62a13.55,13.55,0,0,0-2.86-.4,8.34,8.34,0,0,0-4.77,1.31,3.83,3.83,0,0,0-1.93,3.22,3.24,3.24,0,0,0,1.25,2.67,5.44,5.44,0,0,0,3.41,1,11.32,11.32,0,0,0,4.83-1.33v7.87a14.65,14.65,0,0,1-7,1.85,12.54,12.54,0,0,1-8.71-3.1,10.09,10.09,0,0,1-3.46-7.82,11.1,11.1,0,0,1,2.84-7.64,13.12,13.12,0,0,1,6.37-3.59l-.42-1.45h-7.87v-9.19Z" transform="translate(-207.08 -16.54)"/>
    <path class="cls-3" d="M494.07,284.28v6.21H483.36v-6.21Z" transform="translate(-207.08 -16.54)"/>
    <path class="cls-3" d="M485,301.58h-9.52V278.16h-1.75c-1.58,0-2.37.56-2.37,1.67s.87,1.8,2.62,1.8v8.53h-1.82c-1.6,0-2.4.52-2.4,1.55a1.4,1.4,0,0,0,.59,1.28,4.09,4.09,0,0,0,2,.36h1.61v8.23h-1.8a16.73,16.73,0,0,1-4.55-.5,8.64,8.64,0,0,1-3.16-1.73,8.75,8.75,0,0,1-3-7,8,8,0,0,1,5.14-7.94,8.1,8.1,0,0,1-3.54-6.7q0-8.14,10.33-8.14H485Z" transform="translate(-207.08 -16.54)"/>
    <path class="cls-3" d="M449.62,278.77q-8.17,0-8.17,6.54,0,7,8.32,7h1.52v9.4c-1.31.06-2.26.09-2.84.09a16.54,16.54,0,0,1-12.07-4.59,15.89,15.89,0,0,1-4.68-11.86,14.61,14.61,0,0,1,5.48-12q4.62-3.71,12.77-3.71h12.4v32h-9.51V278.77Z" transform="translate(-207.08 -16.54)"/>
    <path class="cls-3" d="M432.67,290.11c0,3.6-1,6.41-2.9,8.43s-4.64,3-8.11,3h-2.53v-9.29h.49a4,4,0,0,0,2.82-.73,4.4,4.4,0,0,0,.72-3v-19h9.51Z" transform="translate(-207.08 -16.54)"/>
  </g>
</svg>
